<svg width="87" height="117" viewBox="0 0 87 117" fill="none" xmlns="http://www.w3.org/2000/svg">
<path d="M60.1675 97.2923C55.7725 91.2721 51.8918 84.8628 48.5766 78.1489C45.253 71.3712 43.3466 65.7011 43.7673 65.4958C44.188 65.2904 46.9032 70.5041 50.6787 76.723C54.442 82.9318 58.4909 88.9511 62.8093 94.757C65.5205 98.4302 67.0484 100.462 67.805 101.754L67.9507 99.998L68.1976 95.6856C68.3343 92.9204 68.4684 90.4211 68.6144 88.3212C68.8959 84.1209 69.2351 81.5187 69.6315 81.5451C70.0278 81.5715 70.4187 84.2241 70.6495 88.4996C70.7647 90.6318 70.8501 93.1618 70.8714 95.9885C70.9132 97.3975 70.853 98.8802 70.7945 100.418C70.755 101.192 70.7162 101.989 70.6366 102.817C70.5788 103.325 70.4182 105.634 69.043 105.947C68.8779 105.996 68.7239 106.068 68.5481 106.105L68.1127 106.166C67.8938 106.157 67.7167 106.151 67.5206 106.209C67.135 106.195 66.7719 106.236 66.4179 106.233C65.6989 106.206 65.011 106.179 64.3337 106.153C62.9789 106.1 61.6924 105.895 60.4695 105.726C58.0233 105.377 55.8354 104.96 54.0018 104.556C50.3343 103.739 48.0935 102.943 48.1217 102.489C48.1499 102.036 50.439 102.003 54.1093 102.211C55.9451 102.338 58.115 102.499 60.5348 102.659C61.7332 102.705 62.9965 102.832 64.2891 102.893L64.7164 102.909C63.108 101.137 61.5961 99.2687 60.189 97.3153" fill="#0E0E0E"/>
<path d="M41.7499 60.774C41.1947 61.0424 40.044 59.5152 39.2598 57.3334C38.4756 55.1516 37.5081 50.6552 38.107 50.4554C38.7059 50.2556 40.5271 54.3503 41.3198 56.4656C42.1125 58.5808 42.3155 60.506 41.7499 60.774Z" fill="#0E0E0E"/>
<path d="M36.4235 45.2376C35.9377 45.3798 34.9939 43.6583 34.4035 41.3709C33.813 39.0836 33.242 34.511 33.7624 34.4346C34.2827 34.3581 35.6101 38.7345 36.2099 40.9686C36.8096 43.2026 36.9204 45.1065 36.4244 45.2698" fill="#0E0E0E"/>
<path d="M33.1011 30.3075C32.7769 30.3602 32.2186 28.4807 31.9433 26.1016C31.668 23.7224 31.566 19.0249 31.9105 19.0273C32.255 19.0298 32.8386 23.6482 33.1402 25.974C33.4418 28.2999 33.4253 30.2549 33.1014 30.3184" fill="#0E0E0E"/>
<path d="M31.9687 9.67485C31.8875 12.0198 31.7175 13.909 31.4159 13.8973C31.1143 13.8856 30.806 11.9565 30.8859 9.56836C30.9323 8.10174 31.0692 6.64371 31.2963 5.20038C31.3492 4.31838 31.5875 3.46293 31.9998 2.67484C32.1569 3.55335 32.1831 4.43764 32.0777 5.306L31.9809 9.66456" fill="#0E0E0E"/>
</svg>
