<svg width="134" height="145" viewBox="0 0 134 145" fill="none" xmlns="http://www.w3.org/2000/svg">
<path d="M35.1904 116.048C42.4628 109.862 49.1495 103.001 55.1622 95.5542C61.2017 88.0291 65.0983 81.4321 64.5918 81.0241C64.0854 80.6161 59.2299 86.3501 52.7285 93.0042C46.2458 99.6496 39.4313 105.954 32.3122 111.892C27.8358 115.657 25.3225 117.729 24.0084 119.122L24.2419 116.824L24.9616 111.221C25.4518 107.636 25.8808 104.391 26.1973 101.654C26.8441 96.1825 27.0269 92.7358 26.4964 92.6328C25.9659 92.5298 24.8054 95.7889 23.4629 101.18C22.7932 103.868 22.0664 107.076 21.3524 110.686C20.9554 112.474 20.6752 114.392 20.3794 116.38C20.2438 117.384 20.1019 118.417 20.0062 119.504C19.9595 120.173 19.6114 123.184 21.3541 124.059C21.5605 124.178 21.7468 124.323 21.9702 124.432L22.5312 124.66C22.8227 124.725 23.0586 124.777 23.3035 124.92C23.817 125.034 24.2872 125.212 24.7559 125.331C25.7135 125.544 26.6295 125.747 27.5316 125.947C29.3358 126.348 31.0866 126.53 32.7448 126.735C36.0643 127.133 39.0587 127.354 41.5812 127.471C46.6294 127.69 49.7856 127.445 49.8583 126.856C49.931 126.266 46.9121 125.433 42.0081 124.433C39.5499 123.961 36.6413 123.419 33.4027 122.788C31.8067 122.434 30.1055 122.16 28.3814 121.792L27.8124 121.665C30.3693 119.953 32.8219 118.084 35.1564 116.07" fill="#0E0E0E"/>
<path d="M68.405 75.6784C69.074 76.2134 70.9661 74.6565 72.5325 72.1355C74.0988 69.6145 76.4692 64.1952 75.7256 63.7328C74.9821 63.2705 71.5804 67.8812 70.019 70.3141C68.4576 72.747 67.722 75.1403 68.405 75.6784Z" fill="#0E0E0E"/>
<path d="M79.2181 57.6382C79.826 57.9878 81.4917 56.1109 82.8274 53.388C84.1631 50.665 86.0277 45.0114 85.3581 44.7339C84.6885 44.4565 81.8714 49.5981 80.5364 52.2496C79.2013 54.9012 78.5928 57.299 79.2091 57.6791" fill="#0E0E0E"/>
<path d="M87.2336 39.682C87.6495 39.8612 88.8438 37.6491 89.7851 34.6999C90.7263 31.7507 92.0009 25.7753 91.5448 25.6596C91.0887 25.5438 89.1964 31.2517 88.2332 34.1236C87.2701 36.9955 86.8176 39.5027 87.2305 39.6957" fill="#0E0E0E"/>
<path d="M93.7369 13.6733C93.2753 16.7017 93.0417 19.1776 93.4434 19.2668C93.8451 19.356 94.7208 16.9939 95.1946 13.9107C95.4891 12.0182 95.6617 10.1053 95.7117 8.18016C95.8557 7.03333 95.7481 5.85653 95.3942 4.70586C94.9732 5.7757 94.724 6.89813 94.6527 8.04559L93.7232 13.6559" fill="#0E0E0E"/>
</svg>
